<svg width="19" height="19" viewBox="0 0 19 19" fill="none" xmlns="http://www.w3.org/2000/svg">
<path d="M18.81 1.58333V17.4167C18.8095 17.8364 18.6292 18.2389 18.3086 18.5357C17.988 18.8325 17.5534 18.9995 17.1 19H13.2525C12.7991 18.9995 12.3645 18.8325 12.0439 18.5357C11.7233 18.2389 11.543 17.8364 11.5425 17.4167V1.58333C11.543 1.16355 11.7233 0.761107 12.0439 0.464278C12.3645 0.167449 12.7991 0.000480085 13.2525 0H17.1C17.5534 0.000480085 17.988 0.167449 18.3086 0.464278C18.6292 0.761107 18.8095 1.16355 18.81 1.58333ZM5.5575 0H1.71C1.25664 0.000480085 0.821995 0.167449 0.50142 0.464278C0.180845 0.761107 0.000518491 1.16355 0 1.58333V17.4167C0.000518491 17.8364 0.180845 18.2389 0.50142 18.5357C0.821995 18.8325 1.25664 18.9995 1.71 19H5.5575C6.01086 18.9995 6.44551 18.8325 6.76608 18.5357C7.08665 18.2389 7.26698 17.8364 7.2675 17.4167V1.58333C7.26698 1.16355 7.08665 0.761107 6.76608 0.464278C6.44551 0.167449 6.01086 0.000480085 5.5575 0Z" fill="white"/>
</svg>
