<svg width="32" height="32" viewBox="0 0 32 32" fill="none" xmlns="http://www.w3.org/2000/svg">
<path d="M26.0003 3H9.00031C7.93981 3.00121 6.9231 3.42303 6.17322 4.17291C5.42334 4.9228 5.00152 5.93951 5.00031 7V28C5.00032 28.2652 5.10568 28.5196 5.29321 28.7071C5.48075 28.8946 5.73509 29 6.00031 29H24.0003C24.2655 29 24.5199 28.8946 24.7074 28.7071C24.8949 28.5196 25.0003 28.2652 25.0003 28C25.0003 27.7348 24.8949 27.4804 24.7074 27.2929C24.5199 27.1054 24.2655 27 24.0003 27H7.00031C7.00091 26.4698 7.21182 25.9614 7.58676 25.5865C7.9617 25.2115 8.47006 25.0006 9.00031 25H26.0003C26.2655 25 26.5199 24.8946 26.7074 24.7071C26.8949 24.5196 27.0003 24.2652 27.0003 24V4C27.0003 3.73479 26.8949 3.48044 26.7074 3.29291C26.5199 3.10537 26.2655 3.00001 26.0003 3ZM23.0003 15.0001L19.7992 12.6C19.7127 12.5351 19.6074 12.5 19.4993 12.5C19.3911 12.5 19.2858 12.5351 19.1993 12.6L16.0003 14.9999V5H23.0003V15.0001Z" fill="#495340"/>
</svg>
